<?xml version="1.0" encoding="utf-8"?>
<svg viewBox="0 0 500 500" width="500" height="500" xmlns="http://www.w3.org/2000/svg">
  <g id="Layer_1" transform="matrix(1.480884075164795, 0, 0, 1.480884075164795, -18.392797470092773, -10.730547904968262)" style="">
    <g>
      <path class="st14" d="M322.32,196.29c2.71-4.1,6.36-7.75,8.69-12.1c0.15-0.32,0.29-0.63,0.43-0.95 C328.47,187.65,324.51,191.52,322.32,196.29z" style="fill: rgb(140, 94, 68);"/>
      <path class="st14" d="M299.97,255.31c11.27-22.54-39.36-50.66-52.68-29.41c-0.36,0.64-0.65,1.31-0.89,1.99 c14.38-17.88,60.18,7.58,52.32,29.22C299.18,256.55,299.6,255.96,299.97,255.31z" style="fill: rgb(140, 94, 68);"/>
      <path class="st14" d="M271.32,298.16c-90.88-15.76-226.06-88.27-250.9-174.36c-3.19-15.27-1.43-28.76,4.34-40.05 c-7.3,11.95-9.84,26.65-6.31,43.54c24.84,86.09,160.02,158.6,250.9,174.36c31.64,4.99,63.4-0.56,72.44-19.92 C330.72,298.25,300.97,302.84,271.32,298.16z" style="fill: rgb(140, 94, 68);"/>
    </g>
    <path class="st15" d="M346.2,263.61c-0.77-20.62-23.16-39.43-25.4-58.37c-1.09-10.78,7.84-16.42,12.18-24.54 c12.8-26.89-20.48-57.76-42.7-74.27C230.14,64.43,134.91,33.7,71.88,50c-37.54,9.83-59.26,36.51-51.46,73.79 c24.84,86.09,160.02,158.6,250.9,174.36C309.84,304.24,348.56,294.69,346.2,263.61z M264.29,257.16 c-14.55-8.12-22.16-22.11-17.01-31.26c13.33-21.26,63.96,6.87,52.68,29.41C294.81,264.45,278.84,265.28,264.29,257.16z" style="fill: none; stroke: rgb(203, 155, 107); stroke-miterlimit: 10;"/>
  </g>
</svg>